<svg width="300" height="300" viewBox="0 0 300 300" fill="none" xmlns="http://www.w3.org/2000/svg">
<circle cx="150" cy="150" r="125" fill="url(#paint0_linear_4_12)"/>
<path d="M94 121.5V180.5C98 199.3 113 205 120 205.5H184C202 199.1 206.5 186.167 206.5 180.5C207.5 169.833 208.9 143.1 206.5 121.5C204.1 99.9 186.833 94.5 178.5 94.5C167.167 94.3333 139.6 94.1 120 94.5C100.4 94.9 94.5 112.667 94 121.5Z" stroke="white" stroke-width="15"/>
<path d="M182 149.5C182 167.449 167.449 182 149.5 182C131.551 182 117 167.449 117 149.5C117 131.551 131.551 117 149.5 117C167.449 117 182 131.551 182 149.5ZM130.545 149.5C130.545 159.968 139.032 168.455 149.5 168.455C159.968 168.455 168.455 159.968 168.455 149.5C168.455 139.032 159.968 130.545 149.5 130.545C139.032 130.545 130.545 139.032 130.545 149.5Z" fill="white"/>
<circle cx="182" cy="118" r="8" fill="white"/>
<defs>
<linearGradient id="paint0_linear_4_12" x1="150" y1="25" x2="150" y2="275" gradientUnits="userSpaceOnUse">
<stop stop-color="#6D26C5"/>
<stop offset="0.5" stop-color="#B6237A"/>
<stop offset="1" stop-color="#D27348"/>
</linearGradient>
</defs>
</svg>
