<svg width="300" height="300" viewBox="0 0 300 300" fill="none" xmlns="http://www.w3.org/2000/svg">
<path d="M121.159 228.174L117.962 226.596L114.72 228.079L70.9646 248.099L78.1281 189.73L78.4111 187.424L77.3413 185.362C66.6357 164.727 63.7446 141.016 69.1774 118.479C74.6107 95.9401 88.0206 76.0244 107.029 62.3226C126.04 48.619 149.399 42.0357 172.91 43.7736C196.421 45.5115 218.515 55.4542 235.232 71.7908C251.946 88.1251 262.191 109.78 264.155 132.861C266.118 155.941 259.674 178.967 245.961 197.807C232.245 216.649 212.149 230.076 189.265 235.649C166.38 241.223 142.23 238.569 121.159 228.174Z" fill="white" stroke="#009320" stroke-width="15"/>
<path d="M118.599 113.5C119.914 110.211 122.743 107.139 125.095 104.852C126.997 103.003 129.588 102 132.241 102H134.599H138.406C140.032 102 141.495 102.99 142.099 104.5L145.599 113L150.099 124.5L150.227 125.014C150.472 125.995 150.525 127.015 150.382 128.017L150.375 128.063C150.194 129.334 149.695 130.538 148.924 131.566C148.707 131.855 148.47 132.128 148.215 132.384L145.599 135L143.599 137.5C142.176 138.922 142.059 141.198 143.337 142.751C157.536 160.014 165.693 166.066 176.177 171.099C177.326 171.651 178.697 171.402 179.599 170.5L184.849 165L186.417 163.258C189.467 159.868 194.424 158.972 198.469 161.078L210.218 167.198C213.525 168.92 215.599 172.338 215.599 176.067V177.187C215.599 178.386 215.383 179.575 214.962 180.698L214.099 183C211.299 188.2 205.599 191.833 203.099 193C199.899 195 193.099 194.833 190.099 194.5C176.172 193.505 141.463 182.614 119.936 140.662C119.713 140.227 119.518 139.764 119.37 139.298C115.185 126.171 117.616 116.939 118.599 113.5Z" fill="#009320"/>
</svg>
