<svg width="532" height="538" viewBox="0 0 532 538" fill="none" xmlns="http://www.w3.org/2000/svg">
<g clip-path="url(#clip0_20_3)">
<rect x="72" y="178" width="354" height="225" fill="white"/>
<path d="M230.8 4.49997C187.7 12.7 154.1 47.6 147.5 91C146.4 97.7 146 109.3 146 129.7V158.9L99.6 159.2C54.3 159.5 53.1 159.5 50.3 161.6C45.2 165.4 43 169.7 43 175.9C43 184.2 70.6 418.8 73 430.5C78.2 456.5 94.6 475.4 119.5 483.8L127.5 486.5L247.4 486.8C364.9 487 367.5 487 375.4 485C403.9 477.9 424.8 454.4 427.5 426.5C428.2 420 449.1 245.1 454 205.3C455.7 191.9 457 178.6 457 175.7C457 169.7 454.7 165.3 449.7 161.6C446.9 159.5 445.7 159.5 400.4 159.2L354 158.9V134.2C354 96.7 352.2 82.9 344.9 65.4C338.1 49.1 322.5 30.4 307 20C299 14.6 286 8.79997 275.5 5.99997C265 3.09997 242 2.39997 230.8 4.49997ZM264.3 38.6C281.5 42.4 297.9 53.6 307.7 68.3C317.8 83.5 320.3 97.3 319.8 135.5L319.5 158.5H250H180.5L180.6 127.5C180.6 98.6 180.8 96 182.9 88.5C192.7 53 229 30.8 264.3 38.6ZM280.1 195.7C285 200.1 289 205.9 291.4 211.8L293.1 216.2L286.5 223.1C282.9 226.9 280 230.5 280 231C280 231.6 279.6 232 279 232C278.5 232 278 230.3 278 228.2C277.9 221.7 275.6 212.5 274 212.5C273.2 212.5 272.6 213.1 272.8 213.9C273 214.7 273.8 220.1 274.7 225.8L276.2 236.2L272.7 243.9C270.7 248.1 268.8 252.7 268.4 254.2C268.1 255.8 267.4 257 266.9 257C265.5 257 258.3 240.9 257.1 235.2C254.8 224.1 256.3 214.3 261.7 203.7C265.7 196.2 269.9 192 273.6 192C275 192 277.7 193.6 280.1 195.7ZM343.3 205C346.5 207.6 348 214.1 348 225.9C348 243.3 341.6 259.5 330.6 269.8C319.1 280.5 306.7 284.6 288.1 283.7C277.3 283.2 276.5 283.3 271.4 285.8C268 287.5 266 289 266 290.2C266 291.1 268 303.5 270.5 317.7C273 331.9 275 344.3 275 345.2C275 346.7 274.1 347 270.6 347C265.8 347 266.1 347.5 264.4 337.7L263.8 333.9L259.1 334.2L254.5 334.5L253.7 340.7L252.8 347H248.1H243.3L247.7 321.7C250.1 307.9 252.3 294.6 252.7 292.2C253.2 288.6 253.6 288 255.7 288C261.5 288 280.6 277.2 292 267.4C303.2 257.9 316 240.9 316 235.7C316 232.3 314.2 234.2 309.5 242.2C303.3 252.9 290.3 265.9 277.9 274C272.8 277.3 268 280 267.2 280C265.8 280 266 278 268.1 267.5C274.4 236.7 292.1 215.4 318.2 207C331.3 202.8 339.6 202.1 343.3 205ZM147.8 289C151.8 291.4 154 296.3 154 302.5V307H149.5C145 307 145 307 145 303.4C145 298.3 143.5 296 140 296C138.1 296 136.7 296.7 136 297.9C134.7 300.5 134.7 334.5 136 337.1C136.7 338.3 138.1 339 140 339C143.6 339 145 336.7 145 330.5V325.9L149.3 326.2L153.5 326.5L153.8 331.7C154.4 341.7 149.1 348 140 348C134.3 348 131.2 346.4 128.3 342.1C126.1 338.8 126 337.9 126 317.5C126 297.1 126.1 296.2 128.3 292.9C129.5 291.1 131.7 289 133 288.3C136.8 286.4 144 286.7 147.8 289ZM183.6 288.9C189.3 292.4 190 295.5 190 317.5C190 333.8 189.7 337.8 188.3 340.7C183.6 350.7 166.6 350.5 162.4 340.5C160.4 335.6 160.4 299.4 162.4 294.5C165.3 287.5 176.5 284.6 183.6 288.9ZM119 292.5V297H111H103V305V313H109.5H116V317.5V322H109.5H103V330.5V339H111H119V343V347H106.5H94V317.5V288H106.5H119V292.5ZM211.9 293.2C212.5 296.1 214 303 215.2 308.5L217.4 318.5L219.1 311C220.1 306.9 221.6 300 222.5 295.7L224.2 288H230.6H237V317.5V347H232H227L226.9 328.7L226.8 310.5L223.6 324.5L220.3 338.5H217.4H214.5L211.3 324.7C209.6 317.1 207.9 310.4 207.6 309.7C207.4 309 207.1 317.2 207.1 327.7L207 347H203H199V317.5V288H204.9H210.8L211.9 293.2ZM302.7 290C307.4 292.8 309 296.7 309 305C309 312.3 308.2 314.9 304.9 318.5C303.1 320.5 303.2 320.9 307 333.4C309.2 340.4 311 346.4 311 346.6C311 346.8 308.8 347 306.1 347H301.3L297.8 334.7C295.3 326 293.8 322.4 292.7 322.2C291.2 321.9 291 323.3 291 334.4V347H286H281V317.5V288H290.3C297.7 288 300.1 288.4 302.7 290ZM326.1 299.7V311.5L332.1 299.7L338 288H343.1H348.2L342 299.6L335.8 311.2L341.6 327.9C344.7 337 347.5 345.1 347.8 345.7C348.1 346.6 346.8 347 343.2 347H338.2L333.9 334.3L329.7 321.7L327.9 325.1C326.5 327.7 326.1 330.8 326 337.7V347H321.5H317V317.5V288H321.5H326L326.1 299.7ZM378.8 292.2L378.5 296.5L370.8 296.8L363 297.1V305V313H369.6H376.1L375.8 317.2L375.5 321.5L369.3 321.8L363 322.1V330.5V339H371H379V343V347H366.5H354V317.5V288H366.6H379.1L378.8 292.2ZM411 292.5V297H406H401V322V347H396.5H392V322V297H387.5H383V292.5V288H397H411V292.5ZM408 366V370H250H92V366V362H250H408V366Z" fill="#008000"/>
<path d="M258.1 311C257.5 315.7 256.7 321 256.3 322.7C255.8 325.9 255.9 326 259.3 326C262.8 326 262.9 325.9 262.4 322.7C262.1 321 261.3 315.7 260.6 311L259.4 302.5L258.1 311Z" fill="#008000"/>
<path d="M171 298.5C169.7 301.9 169.7 333.1 171 336.4C171.8 338.5 172.6 339 175.4 339C178.3 339 179 338.6 179.9 335.9C181.5 331.4 181.3 302.2 179.7 299C178.8 297.3 177.5 296.4 175.2 296.2C172.5 295.9 171.8 296.3 171 298.5Z" fill="#008000"/>
<path d="M291 305.5V313.9L294.3 313.4C298.6 312.6 300 310.5 300 305.2C300 299 298.7 297 294.5 297H291V305.5Z" fill="#008000"/>
</g>
<defs>
<clipPath id="clip0_20_3">
<rect width="532" height="538" fill="white"/>
</clipPath>
</defs>
</svg>
